<svg xmlns="http://www.w3.org/2000/svg" xmlns:xlink="http://www.w3.org/1999/xlink" width="500" zoomAndPan="magnify" viewBox="0 0 375 374.999991" height="500" preserveAspectRatio="xMidYMid meet" version="1.0"><defs><clipPath id="d13212844d"><path d="M 127.199219 66.351562 L 244.949219 66.351562 L 244.949219 200.601562 L 127.199219 200.601562 Z M 127.199219 66.351562 " clip-rule="nonzero"/></clipPath><clipPath id="e87da350cf"><path d="M 65.878906 174.070312 L 183.628906 174.070312 L 183.628906 308.320312 L 65.878906 308.320312 Z M 65.878906 174.070312 " clip-rule="nonzero"/></clipPath><clipPath id="e8d57b7d1f"><path d="M 191.03125 170.523438 L 308.78125 170.523438 L 308.78125 304.773438 L 191.03125 304.773438 Z M 191.03125 170.523438 " clip-rule="nonzero"/></clipPath></defs><g clip-path="url(#d13212844d)"><path fill="#e69e26" d="M 238.125 104.992188 L 183.523438 74.273438 L 187.621094 74.230469 L 133.417969 106.117188 L 135.441406 102.578125 L 135.414062 165.75 L 133.332031 162.175781 L 187.695312 193.003906 L 183.667969 192.992188 L 239.152344 162.054688 L 237.042969 165.707031 L 236.03125 101.476562 L 238.125 104.992188 M 242.152344 97.832031 C 243.425781 98.546875 244.222656 99.886719 244.246094 101.347656 L 245.261719 165.578125 C 245.285156 167.089844 244.472656 168.496094 243.152344 169.230469 L 187.667969 200.167969 C 186.414062 200.867188 184.886719 200.859375 183.640625 200.152344 L 129.277344 169.320312 C 127.992188 168.59375 127.195312 167.226562 127.195312 165.746094 L 127.226562 102.574219 C 127.226562 101.121094 127.996094 99.773438 129.25 99.035156 L 183.453125 67.148438 C 184.714844 66.40625 186.277344 66.394531 187.550781 67.109375 Z M 242.152344 97.832031 " fill-opacity="1" fill-rule="nonzero"/></g><g clip-path="url(#e87da350cf)"><path fill="#e69e26" d="M 176.804688 212.710938 L 122.199219 181.988281 L 126.296875 181.949219 L 72.09375 213.835938 L 74.121094 210.296875 L 74.09375 273.46875 L 72.011719 269.890625 L 126.371094 300.722656 L 122.34375 300.707031 L 177.828125 269.773438 L 175.722656 273.425781 L 174.710938 209.195312 L 176.804688 212.710938 M 180.832031 205.550781 C 182.105469 206.265625 182.902344 207.605469 182.925781 209.066406 L 183.9375 273.296875 C 183.960938 274.808594 183.152344 276.214844 181.832031 276.949219 L 126.347656 307.886719 C 125.09375 308.582031 123.566406 308.578125 122.320312 307.871094 L 67.957031 277.039062 C 66.671875 276.308594 65.875 274.945312 65.875 273.464844 L 65.902344 210.292969 C 65.902344 208.839844 66.675781 207.492188 67.929688 206.753906 L 122.132812 174.867188 C 123.394531 174.125 124.953125 174.109375 126.230469 174.828125 Z M 180.832031 205.550781 " fill-opacity="1" fill-rule="nonzero"/></g><g clip-path="url(#e8d57b7d1f)"><path fill="#e69e26" d="M 301.957031 209.164062 L 247.351562 178.441406 L 251.449219 178.402344 L 197.246094 210.289062 L 199.273438 206.75 L 199.246094 269.921875 L 197.164062 266.34375 L 251.527344 297.175781 L 247.496094 297.160156 L 302.984375 266.226562 L 300.875 269.878906 L 299.863281 205.648438 L 301.957031 209.164062 M 305.984375 202.003906 C 307.257812 202.71875 308.054688 204.058594 308.078125 205.519531 L 309.089844 269.75 C 309.113281 271.261719 308.304688 272.664062 306.984375 273.402344 L 251.5 304.339844 C 250.246094 305.035156 248.71875 305.03125 247.472656 304.324219 L 193.109375 273.492188 C 191.824219 272.761719 191.027344 271.398438 191.027344 269.917969 L 191.054688 206.746094 C 191.058594 205.292969 191.828125 203.945312 193.082031 203.207031 L 247.285156 171.320312 C 248.546875 170.578125 250.105469 170.5625 251.382812 171.28125 Z M 305.984375 202.003906 " fill-opacity="1" fill-rule="nonzero"/></g></svg>