<svg xmlns="http://www.w3.org/2000/svg" xmlns:xlink="http://www.w3.org/1999/xlink" width="500" zoomAndPan="magnify" viewBox="0 0 375 374.999991" height="500" preserveAspectRatio="xMidYMid meet" version="1.0"><defs><clipPath id="842fb6db03"><path d="M 93.226562 15.046875 L 210.976562 15.046875 L 210.976562 149.296875 L 93.226562 149.296875 Z M 93.226562 15.046875 " clip-rule="nonzero"/></clipPath><clipPath id="8bb334968e"><path d="M 93.226562 225.378906 L 210.976562 225.378906 L 210.976562 359.628906 L 93.226562 359.628906 Z M 93.226562 225.378906 " clip-rule="nonzero"/></clipPath><clipPath id="090b4d9a2c"><path d="M 156.570312 119.707031 L 274.320312 119.707031 L 274.320312 253.957031 L 156.570312 253.957031 Z M 156.570312 119.707031 " clip-rule="nonzero"/></clipPath></defs><g clip-path="url(#842fb6db03)"><path fill="#e69e26" d="M 204.152344 53.6875 L 149.550781 22.964844 L 153.648438 22.925781 L 99.445312 54.8125 L 101.46875 51.273438 L 101.441406 114.441406 L 99.359375 110.867188 L 153.722656 141.699219 L 149.695312 141.683594 L 205.179688 110.746094 L 203.070312 114.402344 L 202.058594 50.171875 L 204.152344 53.6875 M 208.179688 46.523438 C 209.453125 47.242188 210.25 48.578125 210.273438 50.039062 L 211.289062 114.273438 C 211.3125 115.785156 210.5 117.1875 209.179688 117.925781 L 153.695312 148.859375 C 152.441406 149.558594 150.914062 149.554688 149.667969 148.84375 L 95.304688 118.015625 C 94.019531 117.285156 93.222656 115.917969 93.222656 114.4375 L 93.253906 51.269531 C 93.253906 49.8125 94.023438 48.46875 95.277344 47.730469 L 149.480469 15.84375 C 150.742188 15.101562 152.304688 15.085938 153.578125 15.804688 Z M 208.179688 46.523438 " fill-opacity="1" fill-rule="nonzero"/></g><g clip-path="url(#8bb334968e)"><path fill="#e69e26" d="M 204.152344 264.019531 L 149.550781 233.296875 L 153.648438 233.257812 L 99.445312 265.144531 L 101.46875 261.605469 L 101.441406 324.773438 L 99.359375 321.199219 L 153.722656 352.03125 L 149.695312 352.015625 L 205.179688 321.078125 L 203.070312 324.734375 L 202.058594 260.5 L 204.152344 264.019531 M 208.179688 256.855469 C 209.453125 257.574219 210.25 258.910156 210.273438 260.371094 L 211.289062 324.605469 C 211.3125 326.117188 210.5 327.519531 209.179688 328.257812 L 153.695312 359.191406 C 152.441406 359.890625 150.914062 359.886719 149.667969 359.175781 L 95.304688 328.347656 C 94.019531 327.617188 93.222656 326.25 93.222656 324.769531 L 93.253906 261.601562 C 93.253906 260.144531 94.023438 258.800781 95.277344 258.0625 L 149.480469 226.175781 C 150.742188 225.433594 152.304688 225.417969 153.578125 226.136719 Z M 208.179688 256.855469 " fill-opacity="1" fill-rule="nonzero"/></g><g clip-path="url(#090b4d9a2c)"><path fill="#e69e26" d="M 267.496094 158.34375 L 212.894531 127.625 L 216.992188 127.585938 L 162.789062 159.472656 L 164.8125 155.933594 L 164.785156 219.101562 L 162.703125 215.527344 L 217.066406 246.355469 L 213.039062 246.34375 L 268.523438 215.40625 L 266.414062 219.058594 L 265.402344 154.828125 L 267.496094 158.34375 M 271.527344 151.183594 C 272.800781 151.898438 273.597656 153.238281 273.617188 154.699219 L 274.632812 218.929688 C 274.65625 220.445312 273.847656 221.847656 272.523438 222.585938 L 217.039062 253.519531 C 215.785156 254.21875 214.261719 254.210938 213.011719 253.503906 L 158.652344 222.675781 C 157.363281 221.945312 156.566406 220.578125 156.570312 219.097656 L 156.597656 155.929688 C 156.597656 154.472656 157.367188 153.125 158.621094 152.386719 L 212.824219 120.503906 C 214.085938 119.761719 215.648438 119.746094 216.921875 120.460938 Z M 271.527344 151.183594 " fill-opacity="1" fill-rule="nonzero"/></g></svg>