<svg xmlns="http://www.w3.org/2000/svg" xmlns:xlink="http://www.w3.org/1999/xlink" width="500" zoomAndPan="magnify" viewBox="0 0 375 374.999991" height="500" preserveAspectRatio="xMidYMid meet" version="1.0"><defs><clipPath id="544135cbfa"><path d="M 52.933594 34.144531 L 322 34.144531 L 322 340.894531 L 52.933594 340.894531 Z M 52.933594 34.144531 " clip-rule="nonzero"/></clipPath></defs><g clip-path="url(#544135cbfa)"><path fill="#e69e26" d="M 305.734375 122.21875 L 181.292969 52.203125 L 190.632812 52.113281 L 67.101562 124.785156 L 71.714844 116.71875 L 71.652344 260.6875 L 66.90625 252.539062 L 190.800781 322.800781 L 181.621094 322.769531 L 308.074219 252.265625 L 303.273438 260.589844 L 300.964844 114.207031 L 305.734375 122.21875 M 314.917969 105.898438 C 317.820312 107.53125 319.636719 110.582031 319.6875 113.910156 L 321.996094 260.296875 C 322.050781 263.742188 320.207031 266.941406 317.195312 268.621094 L 190.742188 339.125 C 187.886719 340.71875 184.40625 340.703125 181.5625 339.09375 L 57.667969 268.828125 C 54.734375 267.164062 52.921875 264.050781 52.925781 260.679688 L 52.988281 116.710938 C 52.992188 113.394531 54.746094 110.324219 57.605469 108.644531 L 181.136719 35.972656 C 184.011719 34.28125 187.570312 34.246094 190.476562 35.882812 Z M 314.917969 105.898438 " fill-opacity="1" fill-rule="nonzero"/></g></svg>