<svg xmlns="http://www.w3.org/2000/svg" xmlns:xlink="http://www.w3.org/1999/xlink" width="500" zoomAndPan="magnify" viewBox="0 0 375 374.999991" height="500" preserveAspectRatio="xMidYMid meet" version="1.0"><defs><clipPath id="692f842362"><path d="M 159.105469 15.550781 L 276.855469 15.550781 L 276.855469 149.800781 L 159.105469 149.800781 Z M 159.105469 15.550781 " clip-rule="nonzero"/></clipPath><clipPath id="6395025d5e"><path d="M 159.105469 224 L 276.855469 224 L 276.855469 358.109375 L 159.105469 358.109375 Z M 159.105469 224 " clip-rule="nonzero"/></clipPath><clipPath id="ed70aec794"><path d="M 92.71875 120.210938 L 210.46875 120.210938 L 210.46875 254.460938 L 92.71875 254.460938 Z M 92.71875 120.210938 " clip-rule="nonzero"/></clipPath></defs><g clip-path="url(#692f842362)"><path fill="#e69e26" d="M 270.03125 54.191406 L 215.425781 23.472656 L 219.523438 23.433594 L 165.320312 55.320312 L 167.347656 51.777344 L 167.320312 114.949219 L 165.238281 111.375 L 219.601562 142.203125 L 215.570312 142.191406 L 271.058594 111.253906 L 268.949219 114.90625 L 267.9375 50.675781 L 270.03125 54.191406 M 274.058594 47.03125 C 275.332031 47.746094 276.128906 49.085938 276.152344 50.546875 L 277.164062 114.777344 C 277.191406 116.292969 276.378906 117.695312 275.058594 118.429688 L 219.574219 149.367188 C 218.320312 150.066406 216.792969 150.058594 215.546875 149.351562 L 161.183594 118.523438 C 159.898438 117.792969 159.101562 116.425781 159.101562 114.945312 L 159.128906 51.773438 C 159.132812 50.320312 159.902344 48.972656 161.15625 48.234375 L 215.359375 16.347656 C 216.621094 15.609375 218.179688 15.59375 219.457031 16.308594 Z M 274.058594 47.03125 " fill-opacity="1" fill-rule="nonzero"/></g><g clip-path="url(#6395025d5e)"><path fill="#e69e26" d="M 270.03125 262.496094 L 215.425781 231.777344 L 219.523438 231.738281 L 165.320312 263.625 L 167.347656 260.085938 L 167.320312 323.253906 L 165.238281 319.679688 L 219.601562 350.507812 L 215.570312 350.496094 L 271.058594 319.558594 L 268.949219 323.214844 L 267.9375 258.980469 L 270.03125 262.496094 M 274.058594 255.335938 C 275.332031 256.050781 276.128906 257.390625 276.152344 258.851562 L 277.164062 323.082031 C 277.191406 324.597656 276.378906 326 275.058594 326.738281 L 219.574219 357.671875 C 218.320312 358.371094 216.792969 358.363281 215.546875 357.65625 L 161.183594 326.828125 C 159.898438 326.097656 159.101562 324.730469 159.101562 323.25 L 159.128906 260.082031 C 159.132812 258.625 159.902344 257.277344 161.15625 256.539062 L 215.359375 224.65625 C 216.621094 223.914062 218.179688 223.898438 219.457031 224.613281 Z M 274.058594 255.335938 " fill-opacity="1" fill-rule="nonzero"/></g><g clip-path="url(#ed70aec794)"><path fill="#e69e26" d="M 203.644531 158.851562 L 149.042969 128.128906 L 153.140625 128.089844 L 98.9375 159.976562 L 100.960938 156.4375 L 100.933594 219.609375 L 98.851562 216.035156 L 153.214844 246.863281 L 149.1875 246.847656 L 204.671875 215.914062 L 202.566406 219.566406 L 201.550781 155.335938 L 203.644531 158.851562 M 207.675781 151.691406 C 208.949219 152.40625 209.746094 153.746094 209.769531 155.207031 L 210.78125 219.4375 C 210.804688 220.949219 209.996094 222.355469 208.671875 223.089844 L 153.1875 254.027344 C 151.933594 254.726562 150.410156 254.71875 149.160156 254.011719 L 94.800781 223.179688 C 93.511719 222.449219 92.714844 221.085938 92.71875 219.605469 L 92.746094 156.433594 C 92.746094 154.980469 93.515625 153.632812 94.769531 152.894531 L 148.972656 121.007812 C 150.234375 120.265625 151.796875 120.25 153.070312 120.96875 Z M 207.675781 151.691406 " fill-opacity="1" fill-rule="nonzero"/></g></svg>